<?xml version="1.0" encoding="UTF-8"?>
<svg width="16px" height="16px" viewBox="0 0 16 16" version="1.1" xmlns="http://www.w3.org/2000/svg" xmlns:xlink="http://www.w3.org/1999/xlink">
    <title>页面 1</title>
    <g id="页面-1" stroke="none" stroke-width="1" fill="none" fill-rule="evenodd">
        <g id="12图文稿件生产-有视频-竖版" transform="translate(-286.000000, -429.000000)" fill="#FFFFFF">
            <g id="编组" transform="translate(0.000000, 160.000000)">
                <rect id="矩形备份" x="0" y="0" width="375" height="652"></rect>
            </g>
            <path d="M294,429 C289.582143,429 286,432.582143 286,437 C286,441.417857 289.582143,445 294,445 C298.417857,445 302,441.417857 302,437 C302,432.582143 298.417857,429 294,429 Z M296.953571,440.039286 L295.775,440.033929 L294,437.917857 L292.226786,440.032143 L291.046429,440.0375 C290.967857,440.0375 290.903571,439.975 290.903571,439.894643 C290.903571,439.860714 290.916071,439.828571 290.9375,439.801786 L293.260714,437.033929 L290.9375,434.267857 C290.916071,434.241071 290.903571,434.208929 290.903571,434.175 C290.903571,434.096429 290.967857,434.032143 291.046429,434.032143 L292.226786,434.0375 L294,436.153571 L295.773214,434.039286 L296.951786,434.033929 C297.030357,434.033929 297.094643,434.096429 297.094643,434.176786 C297.094643,434.210714 297.082143,434.242857 297.060714,434.269643 L294.741071,437.035714 L297.0625,439.803571 C297.083929,439.830357 297.096429,439.8625 297.096429,439.896429 C297.096429,439.975 297.032143,440.039286 296.953571,440.039286 Z" id="形状" fill-rule="nonzero"></path>
        </g>
    </g>
</svg>